<?xml version="1.0" encoding="UTF-8"?>
<svg width="16px" height="16px" viewBox="0 0 18 18" version="1.1" xmlns="http://www.w3.org/2000/svg">


    <g id="Page-1" stroke="none" stroke-width="1" fill="none" fill-rule="evenodd">
        <g id="Dribbble-Light-Preview" transform="translate(-421.000000, -5120.000000)" fill="#000000">
            <g id="icons" transform="translate(56.000000, 160.000000)">
                <path
                    d="M367.028169,4964.99989 L367.028169,4964.99989 Z M379.197183,4968.99981 L377.169014,4968.99981 L377.169014,4971.99974 L379.197183,4971.99974 C381.563042,4971.99974 381.563042,4968.99981 379.197183,4968.99981 L379.197183,4968.99981 Z M375.140845,4968.99981 L368.042254,4968.99981 C367.482479,4968.99981 367.028169,4969.4478 367.028169,4969.99978 L367.028169,4971.82775 C367.028169,4973.9167 368.576676,4975.78266 370.685972,4975.98066 C373.105577,4976.20865 375.140845,4974.33869 375.140845,4971.99974 L375.140845,4968.99981 Z M379.197183,4973.9997 L376.815099,4973.9997 C375.903437,4976.53864 373.316507,4978.29561 370.359437,4977.95861 C367.25938,4977.60462 365,4974.86768 365,4971.78975 L365,4968.99981 C365,4967.89483 365.907606,4966.99985 367.028169,4966.99985 L377.169014,4966.99985 L379.197183,4966.99985 C384.267606,4966.99985 384.267606,4973.9997 379.197183,4973.9997 L379.197183,4973.9997 Z M375.140845,4964.99989 C375.70062,4964.99989 376.15493,4964.5519 Z"
                    id="coffee-[#689]">

                </path>
            </g>
        </g>
    </g>
</svg>